<?xml version="1.0" standalone="no"?>
<!DOCTYPE svg PUBLIC "-//W3C//DTD SVG 20010904//EN"
 "http://www.w3.org/TR/2001/REC-SVG-20010904/DTD/svg10.dtd">
<svg version="1.0" xmlns="http://www.w3.org/2000/svg"
 width="1080.000000pt" height="1080.000000pt" viewBox="0 0 1080.000000 1080.000000"
 preserveAspectRatio="xMidYMid meet">
<metadata>
Created by potrace 1.11, written by Peter Selinger 2001-2013
</metadata>
<g transform="translate(0.000000,1080.000000) scale(0.100000,-0.100000)"
fill="#000000" stroke="none">
<path d="M830 5805 l0 -935 225 0 225 0 2 526 3 526 215 -523 215 -524 170 -3
171 -2 214 522 215 522 3 -522 2 -522 230 0 230 0 0 935 0 935 -264 0 -263 0
-263 -632 c-144 -348 -265 -636 -269 -640 -4 -5 -126 279 -273 630 l-265 637
-262 3 -261 2 0 -935z"/>
<path d="M3793 6345 c-355 -92 -568 -387 -550 -765 9 -180 52 -305 151 -436
92 -123 260 -230 426 -270 103 -26 298 -25 400 0 223 55 399 194 496 391 60
124 78 219 71 389 -5 148 -21 216 -74 324 -65 131 -230 282 -368 336 -159 62
-383 75 -552 31z m347 -391 c134 -62 199 -191 188 -370 -12 -183 -91 -292
-238 -330 -71 -18 -121 -13 -195 20 -73 33 -110 69 -145 139 -38 78 -52 180
-38 279 17 127 70 208 170 257 82 42 176 43 258 5z"/>
<path d="M9255 6356 c-89 -22 -168 -70 -234 -142 l-61 -67 0 107 0 106 -225 0
-225 0 0 -745 0 -745 224 0 225 0 3 448 c4 486 4 491 63 568 35 45 121 85 198
91 94 8 166 -16 226 -75 80 -77 81 -83 81 -594 l0 -438 230 0 230 0 0 433 c0
237 -5 475 -10 527 -26 272 -176 464 -407 524 -73 19 -245 20 -318 2z"/>
<path d="M4900 6357 c0 -1 130 -330 288 -729 l289 -727 -152 -354 c-83 -194
-154 -361 -158 -370 -6 -16 13 -17 231 -17 l238 0 472 1093 c260 600 472 1095
472 1100 0 4 -106 6 -236 5 l-236 -3 -179 -479 c-98 -263 -179 -480 -181 -481
-2 -2 -77 214 -168 481 l-164 484 -258 0 c-142 0 -258 -1 -258 -3z"/>
<path d="M6610 6357 c0 -2 128 -327 285 -722 157 -396 285 -727 285 -736 0 -8
-68 -173 -151 -365 -83 -192 -153 -355 -156 -361 -4 -10 47 -13 234 -13 l240
0 15 38 c8 20 218 506 466 1080 248 573 454 1052 457 1063 6 19 2 19 -231 17
l-238 -3 -173 -465 c-95 -256 -176 -473 -180 -483 -6 -13 -57 124 -173 467
l-165 486 -257 0 c-142 0 -258 -1 -258 -3z"/>
</g>
</svg>
